<?xml version="1.0" standalone="no"?>
<!DOCTYPE svg PUBLIC "-//W3C//DTD SVG 20010904//EN"
 "http://www.w3.org/TR/2001/REC-SVG-20010904/DTD/svg10.dtd">
<svg version="1.0" xmlns="http://www.w3.org/2000/svg"
 width="556.000000pt" height="556.000000pt" viewBox="0 0 556.000000 556.000000"
 preserveAspectRatio="xMidYMid meet">
<metadata>
Created by potrace 1.11, written by Peter Selinger 2001-2013
</metadata>
<g transform="translate(0.000000,556.000000) scale(0.100000,-0.100000)"
fill="#000000" stroke="none">
<path d="M1912 3938 c-1 -2492 -1 -2477 -36 -2668 -42 -222 -129 -366 -259
-430 -96 -46 -174 -60 -312 -56 -91 3 -136 9 -185 26 -245 83 -444 250 -553
465 -26 51 -61 130 -68 152 -3 10 -11 9 -34 -3 -16 -8 -128 -65 -247 -126
-210 -107 -217 -112 -212 -137 13 -56 89 -270 122 -341 100 -218 310 -461 485
-561 160 -92 349 -154 537 -175 140 -17 408 -7 540 19 427 85 718 295 888 644
58 119 117 307 136 438 6 38 10 62 21 130 14 91 18 456 19 2228 l1 1947 -421
0 -422 0 0 -1552z"/>
<path d="M4169 3626 c-2 -2 -4 -162 -3 -355 1 -193 -2 -351 -5 -351 -4 0 -40
11 -81 24 -41 13 -149 47 -240 76 -91 29 -210 67 -265 85 -55 18 -103 30 -106
26 -10 -9 -174 -509 -169 -514 3 -2 136 -41 295 -86 254 -73 347 -100 392
-116 7 -2 -40 -73 -113 -172 -69 -92 -132 -177 -140 -188 -7 -11 -48 -66 -90
-123 -42 -56 -75 -105 -72 -107 12 -13 260 -197 373 -278 l51 -36 210 296
c115 163 214 298 219 299 6 2 104 -132 219 -296 115 -165 210 -300 212 -300 2
0 54 39 116 86 62 48 155 118 205 156 l93 70 -32 47 c-43 62 -306 434 -347
491 l-32 44 23 9 c23 8 517 165 613 194 28 8 52 17 54 19 2 2 -1 16 -7 31 -6
15 -38 116 -72 223 -53 170 -79 248 -85 258 -1 1 -28 -7 -61 -17 -32 -11 -185
-60 -340 -110 -155 -50 -284 -91 -288 -91 -3 0 -6 160 -6 355 l0 355 -258 0
c-142 0 -261 -2 -263 -4z"/>
</g>
</svg>
